<svg width="78" height="78" viewBox="0 0 78 78" fill="none" xmlns="http://www.w3.org/2000/svg">
<g clip-path="url(#clip0_375_195)">
<path d="M65 58.5C68.575 58.5 71.5 55.575 71.5 52V13C71.5 9.425 68.575 6.5 65 6.5H13C9.425 6.5 6.5 9.425 6.5 13V71.5L19.5 58.5H65ZM9.75 63.6545V13C9.75 11.2076 11.2076 9.75 13 9.75H65C66.7924 9.75 68.25 11.2076 68.25 13V52C68.25 53.7924 66.7924 55.25 65 55.25H18.1545L9.75 63.6545Z" fill="white"/>
<path d="M39 35.75C40.7949 35.75 42.25 34.2949 42.25 32.5C42.25 30.7051 40.7949 29.25 39 29.25C37.2051 29.25 35.75 30.7051 35.75 32.5C35.75 34.2949 37.2051 35.75 39 35.75Z" fill="white"/>
<path d="M52 35.75C53.7949 35.75 55.25 34.2949 55.25 32.5C55.25 30.7051 53.7949 29.25 52 29.25C50.2051 29.25 48.75 30.7051 48.75 32.5C48.75 34.2949 50.2051 35.75 52 35.75Z" fill="white"/>
<path d="M26 35.75C27.7949 35.75 29.25 34.2949 29.25 32.5C29.25 30.7051 27.7949 29.25 26 29.25C24.2051 29.25 22.75 30.7051 22.75 32.5C22.75 34.2949 24.2051 35.75 26 35.75Z" fill="white"/>
</g>
<defs>
<clipPath id="clip0_375_195">
<rect width="78" height="78" fill="white"/>
</clipPath>
</defs>
</svg>
