<svg width="57" height="32" viewBox="0 0 57 32" fill="none" xmlns="http://www.w3.org/2000/svg">
<rect x="1.00049" y="0.508057" width="55" height="31" fill="white" stroke="black" stroke-dasharray="2 2"/>
<path d="M13.5175 18.5081V17.6444L18.705 9.37169H19.3414V10.8206H18.8698L14.705 17.4796V17.5535H21.5062V18.5081H13.5175ZM18.9494 21.0081V18.2353V17.8376V9.37169H19.9607V21.0081H18.9494ZM23.7416 21.0081V9.37169H30.4916V10.3262H24.8041V14.7069H30.1336V15.6615H24.8041V20.0535H30.6052V21.0081H23.7416ZM42.0352 13.0081H40.967C40.8875 12.6103 40.7435 12.2429 40.5352 11.9058C40.3307 11.5649 40.0731 11.2675 39.7625 11.0137C39.4519 10.76 39.0996 10.563 38.7057 10.4228C38.3117 10.2827 37.8856 10.2126 37.4273 10.2126C36.6924 10.2126 36.0219 10.4039 35.4159 10.7865C34.8136 11.169 34.3307 11.7315 33.967 12.474C33.6072 13.2126 33.4273 14.1179 33.4273 15.1899C33.4273 16.2694 33.6072 17.1785 33.967 17.9171C34.3307 18.6558 34.8136 19.2164 35.4159 19.599C36.0219 19.9778 36.6924 20.1671 37.4273 20.1671C37.8856 20.1671 38.3117 20.0971 38.7057 19.9569C39.0996 19.8168 39.4519 19.6217 39.7625 19.3717C40.0731 19.1179 40.3307 18.8206 40.5352 18.4796C40.7435 18.1387 40.8875 17.7694 40.967 17.3717H42.0352C41.9405 17.9058 41.7625 18.4039 41.5011 18.866C41.2435 19.3243 40.914 19.7259 40.5125 20.0706C40.1148 20.4153 39.6564 20.6842 39.1375 20.8774C38.6185 21.0706 38.0485 21.1671 37.4273 21.1671C36.45 21.1671 35.5826 20.9228 34.825 20.4342C34.0674 19.9418 33.4727 19.2486 33.0409 18.3546C32.6129 17.4607 32.3988 16.4058 32.3988 15.1899C32.3988 13.974 32.6129 12.919 33.0409 12.0251C33.4727 11.1312 34.0674 10.4399 34.825 9.95124C35.5826 9.45881 36.45 9.2126 37.4273 9.2126C38.0485 9.2126 38.6185 9.30919 39.1375 9.50237C39.6564 9.69177 40.1148 9.96071 40.5125 10.3092C40.914 10.6539 41.2435 11.0554 41.5011 11.5137C41.7625 11.9721 41.9405 12.4702 42.0352 13.0081Z" fill="black"/>
<path d="M27.0003 8.93076e-05L8.00014 32.0079H0V0L27.0003 8.93076e-05Z" fill="black"/>
</svg>
