<svg width="48" height="48" viewBox="0 0 48 48" fill="none" xmlns="http://www.w3.org/2000/svg">
<g clip-path="url(#clip0_19_46)">
<path d="M24 4C12.954 4 4 12.954 4 24C4 35.046 12.954 44 24 44C35.046 44 44 35.046 44 24C44 12.954 35.046 4 24 4ZM25 41.949V27H31V25H25V21C25 19.346 26.346 18 28 18H31V16H28C25.243 16 23 18.243 23 21V25H17V27H23V41.949C13.541 41.426 6 33.588 6 24C6 14.075 14.075 6 24 6C33.925 6 42 14.075 42 24C42 33.588 34.459 41.426 25 41.949Z" fill="black"/>
</g>
<defs>
<clipPath id="clip0_19_46">
<rect width="48" height="48" fill="white"/>
</clipPath>
</defs>
</svg>
