<svg width="677" height="122" viewBox="0 0 677 122" fill="none" xmlns="http://www.w3.org/2000/svg">
<path d="M18.45 116.55C20.85 116.55 23.6 115.05 26.7 112.05C29.8 108.95 32.95 104.8 36.15 99.6C39.35 94.4 42.3 88.5 45 81.9C47.7 75.3 49.85 68.45 51.45 61.35L48.9 77.55C45.1 88.15 41.3 96.7 37.5 103.2C33.7 109.6 29.85 114.25 25.95 117.15C22.05 119.95 18.1 121.35 14.1 121.35C9.4 121.35 5.85 119.65 3.45 116.25C1.15 112.85 0 108.5 0 103.2C0 98.4 0.8 93.2 2.4 87.6C4 81.9 6.2 76.25 9 70.65C11.9 65.05 15.2 59.95 18.9 55.35C22.6 50.75 26.6 47.05 30.9 44.25C35.3 41.45 39.75 40.05 44.25 40.05C47.75 40.05 50.4 41.8 52.2 45.3C54.1 48.7 54.5 53.5 53.4 59.7L51.75 60.6C52.45 55.3 52.1 51.05 50.7 47.85C49.3 44.55 47 42.9 43.8 42.9C41.2 42.9 38.45 44.2 35.55 46.8C32.75 49.3 30 52.75 27.3 57.15C24.7 61.45 22.3 66.3 20.1 71.7C18 77.1 16.3 82.7 15 88.5C13.8 94.2 13.2 99.7 13.2 105C13.2 109.3 13.65 112.3 14.55 114C15.55 115.7 16.85 116.55 18.45 116.55ZM56.25 42.15C58.65 42.05 61.05 41.85 63.45 41.55C65.85 41.25 68.05 40.75 70.05 40.05L51.3 106.35C51.1 107.25 50.8 108.45 50.4 109.95C50.1 111.35 50.1 112.65 50.4 113.85C50.8 115.05 51.85 115.65 53.55 115.65C55.55 115.65 57.5 114.55 59.4 112.35C61.3 110.15 63.2 106.15 65.1 100.35L66.9 94.8H69.75L66 105.75C64.6 109.75 62.9 112.9 60.9 115.2C59 117.4 57 118.95 54.9 119.85C52.8 120.85 50.75 121.35 48.75 121.35C44.85 121.35 42.1 120.05 40.5 117.45C39.2 115.15 38.85 112.5 39.45 109.5C40.05 106.4 40.75 103.3 41.55 100.2L56.25 42.15Z" fill="white" fill-opacity="0.35"/>
<path d="M72.9656 106.5C72.1656 109.4 71.9156 111.7 72.2156 113.4C72.5156 115 73.6156 115.8 75.5156 115.8C77.5156 115.8 79.3656 114.7 81.0656 112.5C82.8656 110.2 84.7656 106.2 86.7656 100.5L88.7156 94.95H91.5656L87.8156 105.9C86.5156 109.7 84.9156 112.75 83.0156 115.05C81.2156 117.25 79.2156 118.85 77.0156 119.85C74.8156 120.85 72.4156 121.35 69.8156 121.35C66.5156 121.35 64.0656 120.7 62.4656 119.4C60.9656 118.2 60.0156 116.55 59.6156 114.45C59.3156 112.35 59.3656 110.1 59.7656 107.7C60.2656 105.2 60.8656 102.75 61.5656 100.35L86.0156 19.2C87.0156 15.8 86.9156 13.3 85.7156 11.7C84.5156 10.1 81.4656 9.3 76.5656 9.3L77.6156 6.15C83.1156 6.05 87.9656 5.49999 92.1656 4.5C96.3656 3.4 100.416 1.9 104.316 0L72.9656 106.5Z" fill="white" fill-opacity="0.35"/>
<path d="M97.9172 119.25H84.8672L102.867 54.9C103.167 54 103.417 52.85 103.617 51.45C103.917 49.95 103.917 48.6 103.617 47.4C103.317 46.2 102.367 45.6 100.767 45.6C98.5672 45.6 96.5672 46.75 94.7672 49.05C92.9672 51.35 91.0672 55.3 89.0672 60.9L87.1172 66.45H84.2672L88.0172 55.5C89.5172 51.3 91.2672 48.1 93.2672 45.9C95.3672 43.7 97.5172 42.2 99.7172 41.4C102.017 40.5 104.167 40.05 106.167 40.05C109.167 40.05 111.317 40.75 112.617 42.15C113.917 43.45 114.617 45.2 114.717 47.4C114.917 49.5 114.767 51.75 114.267 54.15C113.767 56.55 113.217 58.85 112.617 61.05L97.9172 119.25ZM140.367 57.45C141.067 55.35 141.517 53.35 141.717 51.45C142.017 49.55 141.867 48 141.267 46.8C140.767 45.5 139.567 44.85 137.667 44.85C134.867 44.85 131.767 46.6 128.367 50.1C125.067 53.5 121.667 58.3 118.167 64.5C114.767 70.6 111.467 77.75 108.267 85.95C105.067 94.05 102.217 102.75 99.7172 112.05L104.667 88.05C109.267 76.05 113.567 66.55 117.567 59.55C121.567 52.55 125.567 47.55 129.567 44.55C133.667 41.55 138.017 40.05 142.617 40.05C145.817 40.05 148.117 40.8 149.517 42.3C151.017 43.7 151.917 45.55 152.217 47.85C152.517 50.15 152.417 52.6 151.917 55.2C151.517 57.8 151.017 60.3 150.417 62.7L135.117 119.25H121.617L140.367 57.45ZM177.867 57.45C178.867 54.35 179.367 51.5 179.367 48.9C179.367 46.2 178.267 44.85 176.067 44.85C173.067 44.85 169.917 46.6 166.617 50.1C163.317 53.6 159.917 58.6 156.417 65.1C152.917 71.5 149.417 79.05 145.917 87.75C142.517 96.35 139.217 105.85 136.017 116.25L139.467 97.05C143.367 86.65 146.967 77.85 150.267 70.65C153.567 63.35 156.817 57.45 160.017 52.95C163.217 48.45 166.517 45.2 169.917 43.2C173.317 41.1 177.017 40.05 181.017 40.05C185.217 40.05 188.067 41.25 189.567 43.65C191.067 46.05 191.667 49 191.367 52.5C191.167 55.9 190.517 59.3 189.417 62.7L174.867 106.5C173.867 109.6 173.517 111.95 173.817 113.55C174.117 115.05 175.267 115.8 177.267 115.8C179.167 115.8 181.017 114.75 182.817 112.65C184.717 110.55 186.717 106.5 188.817 100.5L190.767 94.95H193.617L189.867 105.9C188.467 110.1 186.717 113.3 184.617 115.5C182.617 117.7 180.467 119.2 178.167 120C175.967 120.9 173.817 121.35 171.717 121.35C169.217 121.35 167.217 120.95 165.717 120.15C164.317 119.45 163.217 118.5 162.417 117.3C161.217 115.4 160.817 113.05 161.217 110.25C161.617 107.35 162.417 104.05 163.617 100.35L177.867 57.45Z" fill="white" fill-opacity="0.35"/>
<path d="M227.156 43.05C223.956 43.05 220.856 44.35 217.856 46.95C214.956 49.45 212.256 52.9 209.756 57.3C207.356 61.6 205.206 66.45 203.306 71.85C201.506 77.25 200.106 82.85 199.106 88.65C198.106 94.45 197.606 100 197.606 105.3C197.606 109.8 198.306 113.1 199.706 115.2C201.206 117.3 203.356 118.35 206.156 118.35C209.356 118.35 212.406 117.1 215.306 114.6C218.306 112 221.056 108.55 223.556 104.25C226.056 99.85 228.206 94.95 230.006 89.55C231.806 84.15 233.206 78.6 234.206 72.9C235.206 67.1 235.706 61.5 235.706 56.1C235.706 51.5 235.006 48.2 233.606 46.2C232.206 44.1 230.056 43.05 227.156 43.05ZM184.706 97.8C184.706 93.4 185.306 88.6 186.506 83.4C187.706 78.2 189.506 73.05 191.906 67.95C194.306 62.85 197.206 58.2 200.606 54C204.106 49.8 208.156 46.45 212.756 43.95C217.356 41.35 222.456 40.05 228.056 40.05C234.256 40.05 239.206 42 242.906 45.9C246.706 49.7 248.606 55.6 248.606 63.6C248.606 68 248.006 72.8 246.806 78C245.606 83.2 243.806 88.35 241.406 93.45C239.006 98.55 236.056 103.2 232.556 107.4C229.156 111.6 225.156 115 220.556 117.6C215.956 120.1 210.856 121.35 205.256 121.35C199.056 121.35 194.056 119.4 190.256 115.5C186.556 111.6 184.706 105.7 184.706 97.8Z" fill="white" fill-opacity="0.35"/>
<path d="M244.148 117C244.948 117.4 245.798 117.75 246.698 118.05C247.698 118.25 249.148 118.35 251.048 118.35C255.448 118.35 259.048 117.05 261.848 114.45C264.748 111.75 266.198 107.9 266.198 102.9C266.198 99.8 265.598 96.75 264.398 93.75C263.298 90.65 261.298 87.1 258.398 83.1C256.098 79.9 253.898 76.65 251.798 73.35C249.698 69.95 248.648 65.95 248.648 61.35C248.648 57.05 249.698 53.35 251.798 50.25C253.898 47.05 256.698 44.55 260.198 42.75C263.798 40.95 267.698 40.05 271.898 40.05C274.798 40.05 277.648 40.4 280.448 41.1C283.248 41.8 285.548 43.1 287.348 45C289.248 46.8 290.198 49.5 290.198 53.1C290.198 54 289.948 55.1 289.448 56.4C289.048 57.6 288.348 58.65 287.348 59.55C286.348 60.45 284.998 60.9 283.298 60.9C281.698 60.9 280.298 60.35 279.098 59.25C277.898 58.05 277.298 56.5 277.298 54.6C277.298 52.8 277.648 51.1 278.348 49.5C279.148 47.8 280.198 46.15 281.498 44.55C279.598 43.35 277.098 42.75 273.998 42.75C270.298 42.75 267.198 44 264.698 46.5C262.198 49 260.948 52.5 260.948 57C260.948 59.3 261.298 61.35 261.998 63.15C262.698 64.85 263.698 66.65 264.998 68.55C266.398 70.45 268.048 72.85 269.948 75.75C272.448 79.55 274.548 83.2 276.248 86.7C277.948 90.2 278.798 93.9 278.798 97.8C278.798 102.4 277.598 106.5 275.198 110.1C272.898 113.6 269.798 116.35 265.898 118.35C261.998 120.35 257.698 121.35 252.998 121.35C249.598 121.35 246.348 120.85 243.248 119.85C240.148 118.85 237.598 117.3 235.598 115.2C233.698 113 232.748 110.1 232.748 106.5C232.748 105.1 233.198 103.65 234.098 102.15C234.898 100.55 236.398 99.75 238.598 99.75C240.998 99.75 242.698 100.75 243.698 102.75C244.698 104.65 245.198 106.8 245.198 109.2C245.198 110.8 245.048 112.25 244.748 113.55C244.548 114.75 244.348 115.9 244.148 117Z" fill="white" fill-opacity="0.35"/>
<path d="M329.177 42.15L328.727 45.15H282.077L282.827 42.15H329.177ZM291.077 106.5C290.177 109.8 290.377 112.2 291.677 113.7C293.077 115.1 294.877 115.8 297.077 115.8C299.277 115.8 301.477 114.85 303.677 112.95C305.977 111.05 308.227 107 310.427 100.8L312.527 94.95H315.377L312.227 104.4C310.027 110.9 307.177 115.35 303.677 117.75C300.277 120.15 296.277 121.35 291.677 121.35C287.577 121.35 284.427 120.5 282.227 118.8C280.127 117 278.877 114.5 278.477 111.3C278.077 108.1 278.477 104.45 279.677 100.35L302.927 19.35C305.327 19.25 307.677 19.05 309.977 18.75C312.377 18.45 314.527 17.95 316.427 17.25L291.077 106.5Z" fill="white" fill-opacity="0.35"/>
<path d="M376.418 1.65V102.9C376.418 107.4 377.218 110.75 378.818 112.95C380.518 115.05 383.518 116.1 387.818 116.1V119.25C384.718 118.95 381.618 118.8 378.518 118.8C375.618 118.8 372.818 118.95 370.118 119.25C367.518 119.55 365.118 120.1 362.918 120.9V19.65C362.918 15.15 362.118 11.85 360.518 9.75C358.918 7.55 355.918 6.45 351.518 6.45V3.29999C354.718 3.6 357.818 3.75 360.818 3.75C363.718 3.75 366.468 3.6 369.068 3.29999C371.768 2.9 374.218 2.35 376.418 1.65ZM344.918 39.9C349.318 39.9 353.418 40.95 357.218 43.05C361.118 45.15 363.718 48.75 365.018 53.85L363.068 55.35C361.668 51.15 359.468 48.1 356.468 46.2C353.568 44.3 350.118 43.35 346.118 43.35C340.218 43.35 335.268 46.4 331.268 52.5C327.368 58.6 325.468 68 325.568 80.7C325.568 88.8 326.318 95.55 327.818 100.95C329.418 106.25 331.718 110.25 334.718 112.95C337.818 115.55 341.568 116.85 345.968 116.85C350.168 116.85 353.968 115.05 357.368 111.45C360.768 107.85 362.818 102.55 363.518 95.55L365.318 97.65C364.518 105.25 362.068 111.1 357.968 115.2C353.968 119.3 348.518 121.35 341.618 121.35C335.418 121.35 329.968 119.85 325.268 116.85C320.668 113.85 317.118 109.35 314.618 103.35C312.218 97.35 311.018 89.8 311.018 80.7C311.018 71.6 312.568 64.05 315.668 58.05C318.868 51.95 323.018 47.4 328.118 44.4C333.318 41.4 338.918 39.9 344.918 39.9Z" fill="white" fill-opacity="0.19"/>
<path d="M426.976 39.9C429.676 39.9 432.026 40.45 434.026 41.55C436.126 42.65 437.726 44.1 438.826 45.9C440.026 47.6 440.626 49.55 440.626 51.75C440.626 54.25 439.826 56.45 438.226 58.35C436.726 60.25 434.676 61.2 432.076 61.2C429.976 61.2 428.126 60.55 426.526 59.25C424.926 57.85 424.126 55.9 424.126 53.4C424.126 51.5 424.626 49.9 425.626 48.6C426.726 47.2 427.926 46.1 429.226 45.3C428.526 44.3 427.476 43.8 426.076 43.8C422.976 43.8 420.126 44.75 417.526 46.65C414.926 48.45 412.726 50.8 410.926 53.7C409.126 56.6 407.726 59.7 406.726 63C405.726 66.2 405.226 69.2 405.226 72V103.8C405.226 108.7 406.626 112 409.426 113.7C412.326 115.3 416.226 116.1 421.126 116.1V119.25C418.826 119.15 415.576 119.05 411.376 118.95C407.176 118.75 402.726 118.65 398.026 118.65C394.626 118.65 391.226 118.75 387.826 118.95C384.526 119.05 382.026 119.15 380.326 119.25V116.1C384.426 116.1 387.326 115.35 389.026 113.85C390.826 112.35 391.726 109.5 391.726 105.3V58.35C391.726 53.85 390.926 50.55 389.326 48.45C387.726 46.25 384.726 45.15 380.326 45.15V42C383.526 42.3 386.626 42.45 389.626 42.45C392.526 42.45 395.276 42.3 397.876 42C400.576 41.6 403.026 41.05 405.226 40.35V59.1C406.326 56.2 407.876 53.3 409.876 50.4C411.976 47.4 414.476 44.9 417.376 42.9C420.276 40.9 423.476 39.9 426.976 39.9Z" fill="white" fill-opacity="0.19"/>
<path d="M465.643 39.9C474.443 39.9 481.293 42.6 486.193 48C491.193 53.3 493.693 61.6 493.693 72.9H440.743L440.593 70.05H479.293C479.493 65.15 479.093 60.65 478.093 56.55C477.093 52.35 475.493 49 473.293 46.5C471.193 44 468.443 42.75 465.043 42.75C460.443 42.75 456.343 45.05 452.743 49.65C449.243 54.25 447.143 61.55 446.443 71.55L446.893 72.15C446.693 73.65 446.543 75.3 446.443 77.1C446.343 78.9 446.293 80.7 446.293 82.5C446.293 89.3 447.393 95.15 449.593 100.05C451.793 104.95 454.643 108.7 458.143 111.3C461.743 113.8 465.443 115.05 469.243 115.05C472.243 115.05 475.093 114.6 477.793 113.7C480.493 112.7 482.993 111.1 485.293 108.9C487.593 106.7 489.593 103.75 491.293 100.05L494.293 101.25C493.193 104.55 491.393 107.75 488.893 110.85C486.393 113.95 483.243 116.5 479.443 118.5C475.643 120.4 471.243 121.35 466.243 121.35C459.043 121.35 452.843 119.7 447.643 116.4C442.543 113.1 438.593 108.55 435.793 102.75C433.093 96.85 431.743 90.1 431.743 82.5C431.743 73.7 433.143 66.15 435.943 59.85C438.743 53.45 442.693 48.55 447.793 45.15C452.893 41.65 458.843 39.9 465.643 39.9Z" fill="white" fill-opacity="0.19"/>
<path d="M511.372 120.3C507.272 120.3 503.722 119.55 500.722 118.05C497.722 116.45 495.422 114.25 493.822 111.45C492.322 108.65 491.572 105.4 491.572 101.7C491.572 97.3 492.572 93.7 494.572 90.9C496.672 88.1 499.322 85.85 502.522 84.15C505.722 82.45 509.072 81.05 512.572 79.95C516.172 78.75 519.572 77.65 522.772 76.65C525.972 75.55 528.572 74.3 530.572 72.9C532.672 71.5 533.722 69.65 533.722 67.35V58.05C533.722 53.85 533.072 50.65 531.772 48.45C530.572 46.25 528.922 44.8 526.822 44.1C524.722 43.3 522.372 42.9 519.772 42.9C517.272 42.9 514.572 43.25 511.672 43.95C508.872 44.65 506.622 46.1 504.922 48.3C506.822 48.7 508.472 49.7 509.872 51.3C511.272 52.9 511.972 54.95 511.972 57.45C511.972 59.95 511.172 61.95 509.572 63.45C507.972 64.85 505.922 65.55 503.422 65.55C500.522 65.55 498.372 64.65 496.972 62.85C495.672 60.95 495.022 58.85 495.022 56.55C495.022 53.95 495.672 51.85 496.972 50.25C498.272 48.65 499.922 47.15 501.922 45.75C504.222 44.15 507.172 42.8 510.772 41.7C514.472 40.5 518.622 39.9 523.222 39.9C527.322 39.9 530.822 40.4 533.722 41.4C536.622 42.3 539.022 43.65 540.922 45.45C543.522 47.85 545.222 50.8 546.022 54.3C546.822 57.7 547.222 61.8 547.222 66.6V108.3C547.222 110.8 547.572 112.6 548.272 113.7C549.072 114.8 550.272 115.35 551.872 115.35C552.972 115.35 554.022 115.1 555.022 114.6C556.022 114.1 557.222 113.3 558.622 112.2L560.272 114.75C558.172 116.35 556.172 117.7 554.272 118.8C552.372 119.8 549.822 120.3 546.622 120.3C543.722 120.3 541.322 119.8 539.422 118.8C537.522 117.8 536.072 116.35 535.072 114.45C534.172 112.45 533.722 109.95 533.722 106.95C531.022 111.45 527.772 114.8 523.972 117C520.272 119.2 516.072 120.3 511.372 120.3ZM516.772 114.3C520.072 114.3 523.122 113.35 525.922 111.45C528.822 109.55 531.422 106.7 533.722 102.9V73.5C532.522 75.2 530.772 76.65 528.472 77.85C526.172 78.95 523.672 80.1 520.972 81.3C518.272 82.4 515.672 83.75 513.172 85.35C510.772 86.85 508.772 88.85 507.172 91.35C505.572 93.85 504.772 97.1 504.772 101.1C504.772 105.1 505.822 108.3 507.922 110.7C510.122 113.1 513.072 114.3 516.772 114.3Z" fill="white" fill-opacity="0.19"/>
<path d="M599.279 39.9C602.779 39.9 605.829 40.4 608.429 41.4C611.029 42.4 613.179 43.8 614.879 45.6C616.779 47.6 618.079 50.2 618.779 53.4C619.479 56.6 619.829 60.55 619.829 65.25V105.3C619.829 109.5 620.679 112.35 622.379 113.85C624.179 115.35 627.129 116.1 631.229 116.1V119.25C629.529 119.15 626.929 119.05 623.429 118.95C619.929 118.75 616.529 118.65 613.229 118.65C609.929 118.65 606.679 118.75 603.479 118.95C600.379 119.05 598.029 119.15 596.429 119.25V116.1C600.029 116.1 602.579 115.35 604.079 113.85C605.579 112.35 606.329 109.5 606.329 105.3V61.95C606.329 58.85 606.129 56 605.729 53.4C605.329 50.8 604.329 48.7 602.729 47.1C601.129 45.5 598.529 44.7 594.929 44.7C591.029 44.7 587.529 45.9 584.429 48.3C581.429 50.7 579.029 54 577.229 58.2C575.529 62.3 574.679 66.9 574.679 72V105.3C574.679 109.5 575.429 112.35 576.929 113.85C578.429 115.35 580.979 116.1 584.579 116.1V119.25C582.979 119.15 580.579 119.05 577.379 118.95C574.279 118.75 571.079 118.65 567.779 118.65C564.479 118.65 561.079 118.75 557.579 118.95C554.079 119.05 551.479 119.15 549.779 119.25V116.1C553.879 116.1 556.779 115.35 558.479 113.85C560.279 112.35 561.179 109.5 561.179 105.3V58.35C561.179 53.85 560.379 50.55 558.779 48.45C557.179 46.25 554.179 45.15 549.779 45.15V42C552.979 42.3 556.079 42.45 559.079 42.45C561.979 42.45 564.729 42.3 567.329 42C570.029 41.6 572.479 41.05 574.679 40.35V58.05C577.279 51.55 580.829 46.9 585.329 44.1C589.829 41.3 594.479 39.9 599.279 39.9ZM644.429 39.9C647.929 39.9 650.979 40.4 653.579 41.4C656.179 42.4 658.329 43.8 660.029 45.6C661.929 47.6 663.229 50.2 663.929 53.4C664.629 56.6 664.979 60.55 664.979 65.25V105.3C664.979 109.5 665.829 112.35 667.529 113.85C669.329 115.35 672.279 116.1 676.379 116.1V119.25C674.679 119.15 672.079 119.05 668.579 118.95C665.079 118.75 661.679 118.65 658.379 118.65C655.079 118.65 651.829 118.75 648.629 118.95C645.529 119.05 643.179 119.15 641.579 119.25V116.1C645.179 116.1 647.729 115.35 649.229 113.85C650.729 112.35 651.479 109.5 651.479 105.3V61.95C651.479 58.85 651.279 56 650.879 53.4C650.479 50.8 649.479 48.7 647.879 47.1C646.279 45.5 643.679 44.7 640.079 44.7C636.179 44.7 632.679 45.9 629.579 48.3C626.579 50.7 624.179 53.95 622.379 58.05C620.679 62.15 619.829 66.75 619.829 71.85L619.379 57.9C622.079 51 625.729 46.3 630.329 43.8C634.929 41.2 639.629 39.9 644.429 39.9Z" fill="white" fill-opacity="0.19"/>
</svg>
