<svg width="1128" height="203" viewBox="0 0 1128 203" fill="none" xmlns="http://www.w3.org/2000/svg">
<path d="M30.75 194.25C34.75 194.25 39.3333 191.75 44.5 186.75C49.6667 181.583 54.9167 174.667 60.25 166C65.5833 157.333 70.5 147.5 75 136.5C79.5 125.5 83.0833 114.083 85.75 102.25L81.5 129.25C75.1667 146.917 68.8333 161.167 62.5 172C56.1667 182.667 49.75 190.417 43.25 195.25C36.75 199.917 30.1667 202.25 23.5 202.25C15.6667 202.25 9.75 199.417 5.75 193.75C1.91667 188.083 0 180.833 0 172C0 164 1.33333 155.333 4 146C6.66667 136.5 10.3333 127.083 15 117.75C19.8333 108.417 25.3333 99.9167 31.5 92.25C37.6667 84.5833 44.3333 78.4167 51.5 73.75C58.8333 69.0833 66.25 66.75 73.75 66.75C79.5833 66.75 84 69.6667 87 75.5C90.1667 81.1667 90.8333 89.1667 89 99.5L86.25 101C87.4167 92.1667 86.8333 85.0833 84.5 79.75C82.1667 74.25 78.3333 71.5 73 71.5C68.6667 71.5 64.0833 73.6667 59.25 78C54.5833 82.1667 50 87.9167 45.5 95.25C41.1667 102.417 37.1667 110.5 33.5 119.5C30 128.5 27.1667 137.833 25 147.5C23 157 22 166.167 22 175C22 182.167 22.75 187.167 24.25 190C25.9167 192.833 28.0833 194.25 30.75 194.25ZM93.75 70.25C97.75 70.0833 101.75 69.75 105.75 69.25C109.75 68.75 113.417 67.9167 116.75 66.75L85.5 177.25C85.1667 178.75 84.6667 180.75 84 183.25C83.5 185.583 83.5 187.75 84 189.75C84.6667 191.75 86.4167 192.75 89.25 192.75C92.5833 192.75 95.8333 190.917 99 187.25C102.167 183.583 105.333 176.917 108.5 167.25L111.5 158H116.25L110 176.25C107.667 182.917 104.833 188.167 101.5 192C98.3333 195.667 95 198.25 91.5 199.75C88 201.417 84.5833 202.25 81.25 202.25C74.75 202.25 70.1667 200.083 67.5 195.75C65.3333 191.917 64.75 187.5 65.75 182.5C66.75 177.333 67.9167 172.167 69.25 167L93.75 70.25Z" fill="#FFCADA"/>
<path d="M121.609 177.5C120.276 182.333 119.859 186.167 120.359 189C120.859 191.667 122.693 193 125.859 193C129.193 193 132.276 191.167 135.109 187.5C138.109 183.667 138.859 183.25 140.361 183.25C140.861 183.25 143.12 185.931 138.359 191.75C135.359 195.417 132.026 198.083 128.359 199.75C124.693 201.417 120.693 202.25 116.359 202.25C110.859 202.25 106.776 201.167 104.109 199C101.609 197 100.026 194.25 99.3594 190.75C98.8594 187.25 98.9427 183.5 99.6094 179.5C100.443 175.333 101.443 171.25 102.609 167.25L143.359 32C145.026 26.3333 144.859 22.1667 142.859 19.5C140.859 16.8333 135.776 15.5 127.609 15.5L129.359 10.25C138.526 10.0833 146.609 9.16666 153.609 7.49999C160.609 5.66666 167.359 3.16667 173.859 0L148.445 90.25L121.609 177.5Z" fill="#FFCADA"/>
<path d="M163.195 198.75H141.445L171.445 91.5C171.945 90 172.362 88.0833 172.695 85.75C173.195 83.25 173.195 81 172.695 79C172.195 77 170.612 76 167.945 76C164.279 76 160.945 77.9167 157.945 81.75C154.945 85.5833 151.779 92.1667 148.445 101.5L124.839 167L140.445 110.75L146.695 92.5C149.195 85.5 152.112 80.1667 155.445 76.5C158.945 72.8333 162.529 70.3333 166.195 69C170.029 67.5 173.612 66.75 176.945 66.75C181.945 66.75 185.529 67.9167 187.695 70.25C189.862 72.4167 191.029 75.3333 191.195 79C191.529 82.5 191.279 86.25 190.445 90.25C189.612 94.25 188.695 98.0833 187.695 101.75L163.195 198.75ZM233.945 95.75C235.112 92.25 235.862 88.9167 236.195 85.75C236.695 82.5833 236.445 80 235.445 78C234.612 75.8333 232.612 74.75 229.445 74.75C224.779 74.75 219.612 77.6667 213.945 83.5C208.445 89.1667 202.779 97.1667 196.945 107.5C191.279 117.667 185.779 129.583 180.445 143.25C175.112 156.75 170.362 171.25 166.195 186.75L174.445 146.75C182.112 126.75 189.279 110.917 195.945 99.25C202.612 87.5833 209.279 79.25 215.945 74.25C222.779 69.25 230.029 66.75 237.695 66.75C243.029 66.75 246.862 68 249.195 70.5C251.695 72.8333 253.195 75.9167 253.695 79.75C254.195 83.5833 254.029 87.6667 253.195 92C252.529 96.3333 251.695 100.5 250.695 104.5L225.195 198.75H202.695L233.945 95.75ZM296.445 95.75C298.112 90.5833 298.945 85.8333 298.945 81.5C298.945 77 297.112 74.75 293.445 74.75C288.445 74.75 283.195 77.6667 277.695 83.5C272.195 89.3333 266.529 97.6667 260.695 108.5C254.862 119.167 249.029 131.75 243.195 146.25C237.529 160.583 232.029 176.417 226.695 193.75L232.445 161.75C238.945 144.417 244.945 129.75 250.445 117.75C255.945 105.583 261.362 95.75 266.695 88.25C272.029 80.75 277.529 75.3333 283.195 72C288.862 68.5 295.029 66.75 301.695 66.75C308.695 66.75 313.445 68.75 315.945 72.75C318.445 76.75 319.445 81.6667 318.945 87.5C318.612 93.1667 317.529 98.8333 315.695 104.5L291.445 177.5C289.779 182.667 289.195 186.583 289.695 189.25C290.195 191.75 292.112 193 295.445 193C298.612 193 301.695 191.25 304.695 187.75C307.862 184.25 311.195 177.5 314.695 167.5L317.945 158.25H322.695L316.445 176.5C314.112 183.5 311.195 188.833 307.695 192.5C304.362 196.167 300.779 198.667 296.945 200C293.279 201.5 289.695 202.25 286.195 202.25C282.029 202.25 278.695 201.583 276.195 200.25C273.862 199.083 272.029 197.5 270.695 195.5C268.695 192.333 268.029 188.417 268.695 183.75C269.362 178.917 270.695 173.417 272.695 167.25L296.445 95.75Z" fill="#FFCADA"/>
<path d="M378.594 71.75C373.26 71.75 368.094 73.9167 363.094 78.25C358.26 82.4167 353.76 88.1667 349.594 95.5C345.594 102.667 342.01 110.75 338.844 119.75C335.844 128.75 333.51 138.083 331.844 147.75C330.177 157.417 329.344 166.667 329.344 175.5C329.344 183 330.51 188.5 332.844 192C335.344 195.5 338.927 197.25 343.594 197.25C348.927 197.25 354.01 195.167 358.844 191C363.844 186.667 368.427 180.917 372.594 173.75C376.76 166.417 380.344 158.25 383.344 149.25C386.344 140.25 388.677 131 390.344 121.5C392.01 111.833 392.844 102.5 392.844 93.5C392.844 85.8333 391.677 80.3333 389.344 77C387.01 73.5 383.427 71.75 378.594 71.75ZM307.844 163C307.844 155.667 308.844 147.667 310.844 139C312.844 130.333 315.844 121.75 319.844 113.25C323.844 104.75 328.677 97 334.344 90C340.177 83 346.927 77.4167 354.594 73.25C362.26 68.9167 370.76 66.75 380.094 66.75C390.427 66.75 398.677 70 404.844 76.5C411.177 82.8333 414.344 92.6667 414.344 106C414.344 113.333 413.344 121.333 411.344 130C409.344 138.667 406.344 147.25 402.344 155.75C398.344 164.25 393.427 172 387.594 179C381.927 186 375.26 191.667 367.594 196C359.927 200.167 351.427 202.25 342.094 202.25C331.76 202.25 323.427 199 317.094 192.5C310.927 186 307.844 176.167 307.844 163Z" fill="#FFCADA"/>
<path d="M406.914 195C408.247 195.667 409.664 196.25 411.164 196.75C412.831 197.083 415.247 197.25 418.414 197.25C425.747 197.25 431.747 195.083 436.414 190.75C441.247 186.25 443.664 179.833 443.664 171.5C443.664 166.333 442.664 161.25 440.664 156.25C438.831 151.083 435.497 145.167 430.664 138.5C426.831 133.167 423.164 127.75 419.664 122.25C416.164 116.583 414.414 109.917 414.414 102.25C414.414 95.0833 416.164 88.9167 419.664 83.75C423.164 78.4167 427.831 74.25 433.664 71.25C439.664 68.25 446.164 66.75 453.164 66.75C457.997 66.75 462.747 67.3333 467.414 68.5C472.081 69.6667 475.914 71.8333 478.914 75C482.081 78 483.664 82.5 483.664 88.5C483.664 90 483.247 91.8333 482.414 94C481.747 96 480.581 97.75 478.914 99.25C477.247 100.75 474.997 101.5 472.164 101.5C469.497 101.5 467.164 100.583 465.164 98.75C463.164 96.75 462.164 94.1667 462.164 91C462.164 88 462.747 85.1667 463.914 82.5C465.247 79.6667 466.997 76.9167 469.164 74.25C465.997 72.25 461.831 71.25 456.664 71.25C450.497 71.25 445.331 73.3333 441.164 77.5C436.997 81.6667 434.914 87.5 434.914 95C434.914 98.8333 435.497 102.25 436.664 105.25C437.831 108.083 439.497 111.083 441.664 114.25C443.997 117.417 446.747 121.417 449.914 126.25C454.081 132.583 457.581 138.667 460.414 144.5C463.247 150.333 464.664 156.5 464.664 163C464.664 170.667 462.664 177.5 458.664 183.5C454.831 189.333 449.664 193.917 443.164 197.25C436.664 200.583 429.497 202.25 421.664 202.25C415.997 202.25 410.581 201.417 405.414 199.75C400.247 198.083 395.997 195.5 392.664 192C389.497 188.333 387.914 183.5 387.914 177.5C387.914 175.167 388.664 172.75 390.164 170.25C391.497 167.583 393.997 166.25 397.664 166.25C401.664 166.25 404.497 167.917 406.164 171.25C407.831 174.417 408.664 178 408.664 182C408.664 184.667 408.414 187.083 407.914 189.25C407.581 191.25 407.247 193.167 406.914 195Z" fill="#FFCADA"/>
<path d="M548.629 70.25L555.361 70.25L547.879 75.25H470.129L471.379 70.25H548.629ZM485.129 177.5C483.629 183 483.962 187 486.129 189.5C488.462 191.833 491.462 193 495.129 193C498.796 193 502.462 191.417 506.129 188.25C509.962 185.083 513.712 178.333 517.379 168L520.879 158.25H525.629L520.379 174C516.712 184.833 511.962 192.25 506.129 196.25C500.462 200.25 493.796 202.25 486.129 202.25C479.296 202.25 474.046 200.833 470.379 198C466.879 195 464.796 190.833 464.129 185.5C463.462 180.167 464.129 174.083 466.129 167.25L504.879 32.25C508.879 32.0833 512.796 31.75 516.629 31.25C520.629 30.75 524.212 29.9167 527.379 28.75L485.129 177.5Z" fill="#FFCADA"/>
<path d="M627.363 2.74999V171.5C627.363 179 628.697 184.583 631.363 188.25C634.197 191.75 639.197 193.5 646.363 193.5L659.188 197.632C654.021 197.132 637.346 196.75 631.848 198C627.014 198 621.363 198.25 616.863 198.75C612.53 199.25 608.53 200.167 604.863 201.5V32.75C604.863 25.25 603.53 19.75 600.863 16.25C598.197 12.5833 593.197 10.75 585.863 10.75V5.49999C591.197 5.99999 596.363 6.24999 601.363 6.24999C606.197 6.24999 610.78 5.99999 615.113 5.49999C619.613 4.83333 623.697 3.91667 627.363 2.74999ZM574.863 66.5C582.197 66.5 589.03 68.25 595.363 71.75C601.863 75.25 606.197 81.25 608.363 89.75L605.113 92.25C602.78 85.25 599.113 80.1667 594.113 77C589.28 73.8333 583.53 72.25 576.863 72.25C567.03 72.25 558.78 77.3333 552.113 87.5C545.613 97.6667 542.447 113.333 542.613 134.5C542.613 148 543.863 159.25 546.363 168.25C549.03 177.083 552.863 183.75 557.863 188.25C563.03 192.583 569.28 194.75 576.613 194.75C583.613 194.75 589.947 191.75 595.613 185.75C601.28 179.75 604.697 170.917 605.863 159.25L608.863 162.75C607.53 175.417 603.447 185.167 596.613 192C589.947 198.833 580.863 202.25 569.363 202.25C559.03 202.25 549.947 199.75 542.113 194.75C534.447 189.75 528.53 182.25 524.363 172.25C520.363 162.25 518.363 149.667 518.363 134.5C518.363 119.333 520.947 106.75 526.113 96.75C531.447 86.5833 538.363 79 546.863 74C555.53 69 564.863 66.5 574.863 66.5Z" fill="#FFB2C9"/>
<path d="M712.611 66.5C717.111 66.5 721.028 67.4167 724.361 69.25C727.861 71.0833 730.528 73.5 732.361 76.5C734.361 79.3333 735.361 82.5833 735.361 86.25C735.361 90.4167 734.028 94.0833 731.361 97.25C728.861 100.417 725.445 102 721.111 102C717.611 102 714.528 100.917 711.861 98.75C709.195 96.4167 707.861 93.1667 707.861 89C707.861 85.8333 708.695 83.1667 710.361 81C712.195 78.6667 714.195 76.8333 716.361 75.5C715.195 73.8333 713.445 73 711.111 73C705.945 73 701.195 74.5833 696.861 77.75C692.528 80.75 688.861 84.6667 685.861 89.5C682.861 94.3333 680.528 99.5 678.861 105C677.195 110.333 676.361 115.333 676.361 120V173C676.361 181.167 678.695 186.667 683.361 189.5C688.195 192.167 694.695 193.5 702.861 193.5V198.75C699.028 198.583 693.611 198.417 686.611 198.25C679.611 197.917 672.195 197.75 664.361 197.75C658.695 197.75 652.526 197.75 646.846 197.75C641.346 197.75 634.681 197.833 631.848 198L634.861 193.5C641.988 193.5 646.528 192.25 649.361 189.75C652.361 187.25 653.861 182.5 653.861 175.5V97.25C653.861 89.75 652.528 84.25 649.861 80.75C647.195 77.0833 642.195 75.25 634.861 75.25V70C640.195 70.5 645.361 70.75 650.361 70.75C655.195 70.75 659.778 70.5 664.111 70C668.611 69.3333 672.695 68.4167 676.361 67.25V98.5C678.195 93.6667 680.778 88.8333 684.111 84C687.611 79 691.778 74.8333 696.611 71.5C701.445 68.1667 706.778 66.5 712.611 66.5Z" fill="#FFB2C9"/>
<path d="M776.072 66.5C790.739 66.5 802.156 71 810.322 80C818.656 88.8333 822.822 102.667 822.822 121.5H734.572L734.322 116.75H798.822C799.156 108.583 798.489 101.083 796.822 94.25C795.156 87.25 792.489 81.6667 788.822 77.5C785.322 73.3333 780.739 71.25 775.072 71.25C767.406 71.25 760.572 75.0833 754.572 82.75C748.739 90.4167 745.239 102.583 744.072 119.25L744.822 120.25C744.489 122.75 744.239 125.5 744.072 128.5C743.906 131.5 743.822 134.5 743.822 137.5C743.822 148.833 745.656 158.583 749.322 166.75C752.989 174.917 757.739 181.167 763.572 185.5C769.572 189.667 775.739 191.75 782.072 191.75C787.072 191.75 791.822 191 796.322 189.5C800.822 187.833 804.989 185.167 808.822 181.5C812.656 177.833 815.989 172.917 818.822 166.75L823.822 168.75C821.989 174.25 818.989 179.583 814.822 184.75C810.656 189.917 805.406 194.167 799.072 197.5C792.739 200.667 785.406 202.25 777.072 202.25C765.072 202.25 754.739 199.5 746.072 194C737.572 188.5 730.989 180.917 726.322 171.25C721.822 161.417 719.572 150.167 719.572 137.5C719.572 122.833 721.906 110.25 726.572 99.75C731.239 89.0833 737.822 80.9167 746.322 75.25C754.822 69.4167 764.739 66.5 776.072 66.5Z" fill="#FFB2C9"/>
<path d="M852.287 200.5C845.454 200.5 839.537 199.25 834.537 196.75C829.537 194.083 825.704 190.417 823.037 185.75C820.537 181.083 819.287 175.667 819.287 169.5C819.287 162.167 820.954 156.167 824.287 151.5C827.787 146.833 832.204 143.083 837.537 140.25C842.87 137.417 848.454 135.083 854.287 133.25C860.287 131.25 865.954 129.417 871.287 127.75C876.62 125.917 880.954 123.833 884.287 121.5C887.787 119.167 889.537 116.083 889.537 112.25V96.75C889.537 89.75 888.454 84.4167 886.287 80.75C884.287 77.0833 881.537 74.6667 878.037 73.5C874.537 72.1667 870.62 71.5 866.287 71.5C862.12 71.5 857.62 72.0833 852.787 73.25C848.12 74.4167 844.37 76.8333 841.537 80.5C844.704 81.1667 847.454 82.8333 849.787 85.5C852.12 88.1667 853.287 91.5833 853.287 95.75C853.287 99.9167 851.954 103.25 849.287 105.75C846.62 108.083 843.204 109.25 839.037 109.25C834.204 109.25 830.62 107.75 828.287 104.75C826.12 101.583 825.037 98.0833 825.037 94.25C825.037 89.9167 826.12 86.4167 828.287 83.75C830.454 81.0833 833.204 78.5833 836.537 76.25C840.37 73.5833 845.287 71.3333 851.287 69.5C857.454 67.5 864.37 66.5 872.037 66.5C878.87 66.5 884.704 67.3333 889.537 69C894.37 70.5 898.37 72.75 901.537 75.75C905.87 79.75 908.704 84.6667 910.037 90.5C911.37 96.1667 912.037 103 912.037 111V180.5C912.037 184.667 912.62 187.667 913.787 189.5C915.12 191.333 917.12 192.25 919.787 192.25C921.62 192.25 923.37 191.833 925.037 191C926.704 190.167 932.222 188.25 933.787 186.25V191.25C930.287 193.917 931.787 197.338 926.361 198.338C918.861 198.75 916.37 200.5 911.037 200.5C906.204 200.5 902.204 199.667 899.037 198C895.87 196.333 893.454 193.917 891.787 190.75C890.287 187.417 889.537 183.25 889.537 178.25C885.037 185.75 879.62 191.333 873.287 195C867.12 198.667 860.12 200.5 852.287 200.5ZM861.287 190.5C866.787 190.5 871.87 188.917 876.537 185.75C881.37 182.583 885.704 177.833 889.537 171.5V122.5C887.537 125.333 884.62 127.75 880.787 129.75C876.954 131.583 872.787 133.5 868.287 135.5C863.787 137.333 859.454 139.583 855.287 142.25C851.287 144.75 847.954 148.083 845.287 152.25C842.62 156.417 841.287 161.833 841.287 168.5C841.287 175.167 843.037 180.5 846.537 184.5C850.204 188.5 855.12 190.5 861.287 190.5Z" fill="#FFB2C9"/>
<path d="M998.799 66.5C1004.63 66.5 1009.72 67.3333 1014.05 69C1018.38 70.6667 1021.97 73 1024.8 76C1027.97 79.3333 1030.13 83.6667 1031.3 89C1032.47 94.3333 1033.05 100.917 1033.05 108.75V175.5C1033.05 182.5 1034.47 187.25 1037.3 189.75C1040.3 192.25 1045.22 193.5 1052.05 193.5V198.75C1049.22 198.583 1044.88 198.417 1039.05 198.25C1033.22 197.917 1027.55 197.75 1022.05 197.75C1016.55 197.75 1011.13 197.917 1005.8 198.25C1000.63 198.417 996.715 198.583 994.049 198.75V193.5C1000.05 193.5 1004.3 192.25 1006.8 189.75C1009.3 187.25 1010.55 182.5 1010.55 175.5V103.25C1010.55 98.0833 1010.22 93.3333 1009.55 89C1008.88 84.6667 1007.22 81.1667 1004.55 78.5C1001.88 75.8333 997.549 74.5 991.549 74.5C985.049 74.5 979.215 76.5 974.049 80.5C969.049 84.5 965.049 90 962.049 97C959.215 103.833 957.799 111.5 957.799 120V175.5C957.799 182.5 959.049 187.25 961.549 189.75C964.049 192.25 968.299 193.5 974.299 193.5V198.75C971.632 198.583 967.632 198.417 962.299 198.25C957.132 197.917 951.799 197.75 946.299 197.75C940.799 197.75 935.132 197.917 929.299 198.25C923.465 198.417 919.132 198.583 916.299 198.75V193.5C923.132 193.5 927.965 192.25 930.799 189.75C933.799 187.25 935.299 182.5 935.299 175.5V97.25C935.299 89.75 933.965 84.25 931.299 80.75C928.632 77.0833 923.632 75.25 916.299 75.25V70C921.632 70.5 926.799 70.75 931.799 70.75C936.632 70.75 941.215 70.5 945.549 70C950.049 69.3333 954.132 68.4167 957.799 67.25V96.75C962.132 85.9167 968.049 78.1667 975.549 73.5C983.049 68.8333 990.799 66.5 998.799 66.5ZM1074.05 66.5C1079.88 66.5 1084.97 67.3333 1089.3 69C1093.63 70.6667 1097.22 73 1100.05 76C1103.22 79.3333 1105.38 83.6667 1106.55 89C1107.72 94.3333 1108.3 100.917 1108.3 108.75V175.5C1108.3 182.5 1109.72 187.25 1112.55 189.75C1115.55 192.25 1120.47 193.5 1127.3 193.5V198.75C1124.47 198.583 1120.13 198.417 1114.3 198.25C1108.47 197.917 1102.8 197.75 1097.3 197.75C1091.8 197.75 1086.38 197.917 1081.05 198.25C1075.88 198.417 1071.97 198.583 1069.3 198.75V193.5C1075.3 193.5 1079.55 192.25 1082.05 189.75C1084.55 187.25 1085.8 182.5 1085.8 175.5V103.25C1085.8 98.0833 1085.47 93.3333 1084.8 89C1084.13 84.6667 1082.47 81.1667 1079.8 78.5C1077.13 75.8333 1072.8 74.5 1066.8 74.5C1060.3 74.5 1054.47 76.5 1049.3 80.5C1044.3 84.5 1040.3 89.9167 1037.3 96.75C1034.47 103.583 1033.05 111.25 1033.05 119.75L1032.3 96.5C1036.8 85 1042.88 77.1667 1050.55 73C1058.22 68.6667 1066.05 66.5 1074.05 66.5Z" fill="#FFB2C9"/>
</svg>
