<svg width="189" height="32" viewBox="0 0 189 32" fill="none" xmlns="http://www.w3.org/2000/svg">
<rect x="133.5" y="0.5" width="55" height="31" fill="white" stroke="black" stroke-dasharray="2 2"/>
<path d="M166.743 0.5L133.945 31.5H0.5V0.5H166.743Z" fill="black" stroke="black"/>
<path d="M150.886 10.3636V22H149.824V11.4773H149.756L147.028 13.2898V12.1875L149.778 10.3636H150.886ZM154.35 22V10.3636H161.1V11.3182H155.413V15.6989H160.742V16.6534H155.413V21.0455H161.214V22H154.35ZM172.644 14H171.576C171.496 13.6023 171.352 13.2348 171.144 12.8977C170.94 12.5568 170.682 12.2595 170.371 12.0057C170.061 11.7519 169.708 11.5549 169.315 11.4148C168.921 11.2746 168.494 11.2045 168.036 11.2045C167.301 11.2045 166.631 11.3958 166.025 11.7784C165.422 12.161 164.94 12.7235 164.576 13.4659C164.216 14.2045 164.036 15.1098 164.036 16.1818C164.036 17.2614 164.216 18.1705 164.576 18.9091C164.94 19.6477 165.422 20.2083 166.025 20.5909C166.631 20.9697 167.301 21.1591 168.036 21.1591C168.494 21.1591 168.921 21.089 169.315 20.9489C169.708 20.8087 170.061 20.6136 170.371 20.3636C170.682 20.1098 170.94 19.8125 171.144 19.4716C171.352 19.1307 171.496 18.7614 171.576 18.3636H172.644C172.549 18.8977 172.371 19.3958 172.11 19.858C171.852 20.3163 171.523 20.7178 171.121 21.0625C170.724 21.4072 170.265 21.6761 169.746 21.8693C169.227 22.0625 168.657 22.1591 168.036 22.1591C167.059 22.1591 166.191 21.9148 165.434 21.4261C164.676 20.9337 164.082 20.2405 163.65 19.3466C163.222 18.4527 163.008 17.3977 163.008 16.1818C163.008 14.9659 163.222 13.911 163.65 13.017C164.082 12.1231 164.676 11.4318 165.434 10.9432C166.191 10.4508 167.059 10.2045 168.036 10.2045C168.657 10.2045 169.227 10.3011 169.746 10.4943C170.265 10.6837 170.724 10.9527 171.121 11.3011C171.523 11.6458 171.852 12.0473 172.11 12.5057C172.371 12.964 172.549 13.4621 172.644 14Z" fill="black"/>
<path d="M17.9659 19V11.7273H18.63V15.6442H18.6939L22.245 11.7273H23.1186L20.0114 15.0902L23.1044 19H22.2947L19.5994 15.5518L18.63 16.6385V19H17.9659ZM24.1722 19V11.7273H24.8362V18.4034H28.3021V19H24.1722ZM30.2612 11.7273V19H29.5972V11.7273H30.2612ZM31.9948 19V11.7273H32.6589V15.6442H32.7228L36.2739 11.7273H37.1475L34.0403 15.0902L37.1333 19H36.3237L33.6283 15.5518L32.6589 16.6385V19H31.9948ZM43.8651 11.7273V19H43.2188L38.9219 12.9098H38.8651V19H38.2011V11.7273H38.8438L43.1549 17.8246H43.2117V11.7273H43.8651ZM46.2628 11.7273V19H45.5987V11.7273H46.2628ZM50.7521 11.7273H51.4161V16.9723C51.4138 17.4458 51.3285 17.8411 51.1604 18.1584C50.9924 18.4732 50.7603 18.7088 50.4644 18.8651C50.1685 19.0213 49.8288 19.0994 49.4452 19.0994C49.0688 19.0994 48.7326 19.0296 48.4367 18.8899C48.1408 18.7502 47.9076 18.5537 47.7371 18.3004C47.5691 18.0471 47.485 17.75 47.485 17.4091H48.1384C48.1384 17.6245 48.1952 17.8151 48.3089 17.9808C48.4225 18.1442 48.5776 18.272 48.7741 18.3643C48.9729 18.4567 49.1967 18.5028 49.4452 18.5028C49.7033 18.5028 49.9294 18.4484 50.1235 18.3395C50.32 18.2306 50.4739 18.0637 50.5852 17.8388C50.6964 17.6115 50.7521 17.3227 50.7521 16.9723V11.7273ZM56.4245 11.7273V19H55.7604V11.7273H56.4245ZM66.733 15.3636C66.733 16.1212 66.598 16.7805 66.3281 17.3416C66.0582 17.9003 65.6866 18.3336 65.2131 18.6413C64.742 18.9467 64.1998 19.0994 63.5866 19.0994C62.9735 19.0994 62.4302 18.9467 61.9567 18.6413C61.4856 18.3336 61.1151 17.9003 60.8452 17.3416C60.5777 16.7805 60.4439 16.1212 60.4439 15.3636C60.4439 14.6061 60.5777 13.9479 60.8452 13.3892C61.1151 12.8281 61.4867 12.3949 61.9602 12.0895C62.4337 11.7817 62.9759 11.6278 63.5866 11.6278C64.1998 11.6278 64.742 11.7817 65.2131 12.0895C65.6866 12.3949 66.0582 12.8281 66.3281 13.3892C66.598 13.9479 66.733 14.6061 66.733 15.3636ZM66.0866 15.3636C66.0866 14.7126 65.9777 14.1551 65.7599 13.6911C65.5421 13.2247 65.245 12.8684 64.8686 12.6222C64.4922 12.3759 64.0649 12.2528 63.5866 12.2528C63.1108 12.2528 62.6847 12.3759 62.3082 12.6222C61.9318 12.8684 61.6335 13.2235 61.4134 13.6875C61.1955 14.1515 61.0866 14.7102 61.0866 15.3636C61.0866 16.0147 61.1955 16.5722 61.4134 17.0362C61.6312 17.5002 61.9283 17.8565 62.3047 18.1051C62.6811 18.3513 63.1084 18.4744 63.5866 18.4744C64.0649 18.4744 64.4922 18.3513 64.8686 18.1051C65.2474 17.8589 65.5457 17.5038 65.7635 17.0398C65.9813 16.5734 66.089 16.0147 66.0866 15.3636ZM70.2696 19H68.139V11.7273H70.3975C71.0911 11.7273 71.6842 11.8717 72.1766 12.1605C72.6714 12.4493 73.0502 12.8636 73.313 13.4034C73.5757 13.9432 73.7071 14.5907 73.7071 15.3459C73.7071 16.1082 73.5722 16.7628 73.3023 17.3097C73.0348 17.8542 72.6442 18.272 72.1304 18.5632C71.6191 18.8544 70.9988 19 70.2696 19ZM68.803 18.4034H70.2306C70.8556 18.4034 71.3788 18.2803 71.8002 18.0341C72.2216 17.7879 72.5376 17.4363 72.7483 16.9794C72.959 16.5225 73.0644 15.978 73.0644 15.3459C73.062 14.7185 72.9578 14.1787 72.7519 13.7266C72.5483 13.2744 72.2453 12.9276 71.8428 12.6861C71.4427 12.4446 70.9479 12.3239 70.3584 12.3239H68.803V18.4034ZM75.1167 19V11.7273H77.5705C78.044 11.7273 78.4382 11.8101 78.7531 11.9759C79.0703 12.1416 79.3082 12.3677 79.4668 12.6541C79.6254 12.9406 79.7048 13.2661 79.7048 13.6307C79.7048 13.9337 79.6539 14.1929 79.5521 14.4084C79.4503 14.6238 79.3118 14.7978 79.1366 14.9304C78.9614 15.063 78.7661 15.1589 78.5506 15.218V15.2749C78.785 15.2914 79.0123 15.3743 79.2325 15.5234C79.4526 15.6702 79.6337 15.8762 79.7758 16.1413C79.9178 16.4065 79.9888 16.7237 79.9888 17.093C79.9888 17.46 79.9072 17.7879 79.7438 18.0767C79.5805 18.3632 79.3295 18.5893 78.991 18.755C78.6548 18.9183 78.2263 19 77.7055 19H75.1167ZM75.7808 18.4034H77.7055C78.2665 18.4034 78.6808 18.2791 78.9484 18.0305C79.2183 17.782 79.3532 17.4695 79.3532 17.093C79.3532 16.8161 79.2857 16.5651 79.1508 16.3402C79.0182 16.1129 78.83 15.933 78.5861 15.8004C78.3447 15.6679 78.0606 15.6016 77.7339 15.6016H75.7808V18.4034ZM75.7808 15.0121H77.6309C77.9174 15.0121 78.1683 14.9529 78.3837 14.8345C78.5992 14.7161 78.7673 14.5528 78.888 14.3445C79.0087 14.1361 79.0691 13.8982 79.0691 13.6307C79.0691 13.2448 78.9436 12.9311 78.6927 12.6896C78.4417 12.4458 78.0677 12.3239 77.5705 12.3239H75.7808V15.0121ZM82.0554 11.7273V19H81.3913V11.7273H82.0554ZM83.789 19V11.7273H88.0077V12.3239H84.453V15.0618H87.784V15.6584H84.453V18.4034H88.0787V19H83.789ZM89.5265 19V11.7273H91.8738C92.3899 11.7273 92.8207 11.8208 93.1664 12.0078C93.5144 12.1925 93.776 12.4493 93.9512 12.7784C94.1287 13.1051 94.2175 13.4804 94.2175 13.9041C94.2175 14.3279 94.1287 14.7019 93.9512 15.0263C93.776 15.3506 93.5156 15.6039 93.1699 15.7862C92.8243 15.9685 92.3958 16.0597 91.8844 16.0597H89.8851V15.4524H91.8667C92.2454 15.4524 92.5603 15.3897 92.8113 15.2642C93.0646 15.1387 93.2528 14.96 93.3759 14.728C93.5014 14.496 93.5641 14.2214 93.5641 13.9041C93.5641 13.5869 93.5014 13.3099 93.3759 13.0732C93.2504 12.834 93.061 12.6494 92.8077 12.5192C92.5568 12.389 92.2395 12.3239 91.856 12.3239H90.1905V19H89.5265ZM92.7331 15.7188L94.5229 19H93.7559L91.9838 15.7188H92.7331ZM95.3474 19V18.4993L99.3851 12.3239H95.3261V11.7273H100.177V12.228L96.1358 18.4034H100.212V19H95.3474ZM104.229 19V11.7273H106.576C107.093 11.7273 107.523 11.8208 107.869 12.0078C108.217 12.1925 108.479 12.4493 108.654 12.7784C108.831 13.1051 108.92 13.4804 108.92 13.9041C108.92 14.3279 108.831 14.7019 108.654 15.0263C108.479 15.3506 108.218 15.6039 107.873 15.7862C107.527 15.9685 107.099 16.0597 106.587 16.0597H104.588V15.4524H106.569C106.948 15.4524 107.263 15.3897 107.514 15.2642C107.767 15.1387 107.956 14.96 108.079 14.728C108.204 14.496 108.267 14.2214 108.267 13.9041C108.267 13.5869 108.204 13.3099 108.079 13.0732C107.953 12.834 107.764 12.6494 107.51 12.5192C107.259 12.389 106.942 12.3239 106.559 12.3239H104.893V19H104.229ZM107.436 15.7188L109.226 19H108.459L106.687 15.7188H107.436ZM110.348 19H109.652L112.298 11.7273H113.008L115.654 19H114.958L112.678 12.5902H112.628L110.348 19ZM110.849 16.2124H114.457V16.8089H110.849V16.2124ZM116.7 19V11.7273H119.154C119.628 11.7273 120.022 11.8101 120.337 11.9759C120.654 12.1416 120.892 12.3677 121.05 12.6541C121.209 12.9406 121.288 13.2661 121.288 13.6307C121.288 13.9337 121.237 14.1929 121.136 14.4084C121.034 14.6238 120.895 14.7978 120.72 14.9304C120.545 15.063 120.35 15.1589 120.134 15.218V15.2749C120.369 15.2914 120.596 15.3743 120.816 15.5234C121.036 15.6702 121.217 15.8762 121.359 16.1413C121.501 16.4065 121.572 16.7237 121.572 17.093C121.572 17.46 121.491 17.7879 121.327 18.0767C121.164 18.3632 120.913 18.5893 120.575 18.755C120.238 18.9183 119.81 19 119.289 19H116.7ZM117.364 18.4034H119.289C119.85 18.4034 120.264 18.2791 120.532 18.0305C120.802 17.782 120.937 17.4695 120.937 17.093C120.937 16.8161 120.869 16.5651 120.734 16.3402C120.602 16.1129 120.414 15.933 120.17 15.8004C119.928 15.6679 119.644 15.6016 119.317 15.6016H117.364V18.4034ZM117.364 15.0121H119.214C119.501 15.0121 119.752 14.9529 119.967 14.8345C120.183 14.7161 120.351 14.5528 120.472 14.3445C120.592 14.1361 120.653 13.8982 120.653 13.6307C120.653 13.2448 120.527 12.9311 120.276 12.6896C120.025 12.4458 119.651 12.3239 119.154 12.3239H117.364V15.0121ZM122.986 19H122.29L124.935 11.7273H125.645L128.291 19H127.595L125.315 12.5902H125.265L122.986 19ZM123.486 16.2124H127.094V16.8089H123.486V16.2124ZM128.047 12.3239V11.7273H133.321V12.3239H131.016V19H130.352V12.3239H128.047Z" fill="white"/>
</svg>
